<?xml version="1.0" encoding="UTF-8"?>
<svg version="1.1" xmlns="http://www.w3.org/2000/svg" width="400" height="400">
<path d="M0 0 C2.76276177 0.52268466 5.3260876 1.10869587 8 2 C9.66964655 1.68192879 11.33584891 1.3456733 13 1 C17.49860188 0.80472254 21.99750196 0.81419156 26.49975586 0.81469727 C28.6634529 0.81252415 30.82662825 0.79438044 32.99023438 0.77539062 C43.68512824 0.72816456 52.81922739 0.92214979 61.8125 7.1875 C65.87847464 10.25384099 65.87847464 10.25384099 70.6796875 10.7734375 C71.44539063 10.51820313 72.21109375 10.26296875 73 10 C74.99897128 9.66055205 76.99875639 9.32578384 79 9 C79 8.34 79 7.68 79 7 C82.62091296 5.35309378 85.45729531 4.74500845 89.42602539 4.7253418 C90.48805679 4.71580978 91.5500882 4.70627777 92.64430237 4.69645691 C94.35371254 4.69782402 94.35371254 4.69782402 96.09765625 4.69921875 C97.2829039 4.69493362 98.46815155 4.6906485 99.6893158 4.68623352 C102.19838829 4.68049326 104.70747743 4.67998771 107.21655273 4.68432617 C111.02422166 4.68746841 114.83109996 4.66408365 118.63867188 4.63867188 C121.08333236 4.63639686 123.52799492 4.63569632 125.97265625 4.63671875 C127.660812 4.62290413 127.660812 4.62290413 129.3830719 4.60881042 C136.05285163 4.64713234 141.8984202 5.46934839 148.30198669 7.36262512 C155.09468715 8.96732315 161.22719269 7.33009347 167.6171875 4.9609375 C176.55471628 2.15811126 185.40557206 2.52860196 194.6875 2.6875 C196.44204666 2.69901852 198.19660565 2.7087956 199.95117188 2.71679688 C201.61720091 2.73019641 203.2832186 2.74511251 204.94921875 2.76171875 C205.72931808 2.76910568 206.50941742 2.77649261 207.31315613 2.78410339 C212.76286516 2.88143258 212.76286516 2.88143258 215 4 C213.31215076 8.67404405 213.31215076 8.67404405 211.41015625 10.66015625 C209.34073459 14.09390576 209.98603462 17.3344239 210.25 21.1875 C210.60511692 30.72895647 207.86963861 37.73347629 203.81591797 46.22607422 C202.78129121 48.4755051 201.98921339 50.76351289 201.25 53.125 C200.05793362 56.88403141 198.70614172 60.43935641 197 64 C196.01 64.495 196.01 64.495 195 65 C194.53146291 67.03179594 194.53146291 67.03179594 194.3671875 69.47265625 C194.28339844 70.37177734 194.19960937 71.27089844 194.11328125 72.19726562 C194.03464844 73.14279297 193.95601562 74.08832031 193.875 75.0625 C193.78863281 76.01189453 193.70226562 76.96128906 193.61328125 77.93945312 C193.40045632 80.29235092 193.19642969 82.64568595 193 85 C192.34 85 191.68 85 191 85 C190.566875 86.5778125 190.566875 86.5778125 190.125 88.1875 C189.22774807 91.22818711 188.23576581 94.08712344 187 97 C186.34 97 185.68 97 185 97 C184.87544434 97.58410645 184.75088867 98.16821289 184.62255859 98.77001953 C184.00037458 100.99865829 183.19224632 102.68150284 182.0390625 104.6796875 C181.64976562 105.36160156 181.26046875 106.04351562 180.859375 106.74609375 C180.24835938 107.79990234 180.24835938 107.79990234 179.625 108.875 C168.81142659 127.67666474 169.90489034 143.95632914 174 165 C174.33 165.99 174.66 166.98 175 168 C175.12781786 170.67394964 175.04391871 173.32095857 175 176 C175.66 176.33 176.32 176.66 177 177 C177.52734375 179.625 177.52734375 179.625 177.9375 183 C178.59603839 187.72207761 179.5095671 191.86111354 181.1640625 196.30859375 C181.87181582 198.58729485 182.38093189 200.76115517 182.8359375 203.09765625 C184.61290199 212.1990159 186.81473365 219.61611144 191.609375 227.59375 C193 230 193 230 193 232 C193.66 232 194.32 232 195 232 C197.17204 234.96187272 198.83561997 237.50685991 200 241 C200.66 241 201.32 241 202 241 C202 241.66 202 242.32 202 243 C203.32 243.33 204.64 243.66 206 244 C206 244.66 206 245.32 206 246 C140.66 246 75.32 246 8 246 C7.34 241.71 6.68 237.42 6 233 C5.04788888 230.97676387 4.05226728 228.97300116 3 227 C0.63135538 219.18628777 0.69076173 211.15670263 0.73925781 203.06811523 C0.74999899 200.93770002 0.73929733 198.80812444 0.7265625 196.67773438 C0.71934769 189.50364988 1.05562531 182.92773502 3 176 C3.18933105 175.31276855 3.37866211 174.62553711 3.57373047 173.91748047 C4.03150484 172.27330413 4.51277307 170.63569041 5 169 C5.66 169 6.32 169 7 169 C7.0928125 167.576875 7.0928125 167.576875 7.1875 166.125 C8.59603313 156.49680777 15.71542571 145.0635878 21.890625 137.765625 C30.31193619 126.72435033 35.18541622 113.80320772 35 100 C35.495 98.515 35.495 98.515 36 97 C36.5501805 90.85279092 36.24188374 86.40313957 33 81 C33 80.34 33 79.68 33 79 C32.34 79 31.68 79 31 79 C29.4140625 76.953125 29.4140625 76.953125 27.625 74.25 C25.13274461 70.46963132 25.13274461 70.46963132 21.96484375 67.28125 C18.92950315 63.75711697 18.13614039 59.68270787 16.9375 55.25 C16.44931593 53.50445058 15.95845937 51.75964624 15.46484375 50.015625 C15.22717285 49.16983887 14.98950195 48.32405273 14.74462891 47.45263672 C14.04002497 45.13183307 13.22270234 42.90329436 12.33203125 40.6484375 C11.19180313 37.52534933 10.72645918 35.61186241 10.75 32.375 C10.32067818 26.32716221 7.50527937 21.52027008 4.72265625 16.27734375 C1.97672642 11.05322782 -0.56766714 6.05511618 0 0 Z " fill="#C19696" transform="translate(0,154)"/>
<path d="M0 0 C0.88042969 0.08378906 1.76085937 0.16757813 2.66796875 0.25390625 C4.41013672 0.40666016 4.41013672 0.40666016 6.1875 0.5625 C7.33605469 0.66691406 8.48460937 0.77132812 9.66796875 0.87890625 C12.71703174 0.98971628 15.05089864 0.66846297 18 0 C19.43628457 -0.06266512 20.8750555 -0.08686347 22.3125 -0.0625 C24.1378125 -0.0315625 24.1378125 -0.0315625 26 0 C26 0.99 26 1.98 26 3 C28.475 3.495 28.475 3.495 31 4 C31 4.66 31 5.32 31 6 C31.68964844 6.17015625 32.37929688 6.3403125 33.08984375 6.515625 C39.37734748 8.13709372 45.16109729 10.15984239 51 13 C51 13.66 51 14.32 51 15 C51.99 15.33 52.98 15.66 54 16 C54 16.66 54 17.32 54 18 C55.32 17.67 56.64 17.34 58 17 C59.28571429 25.57142857 59.28571429 25.57142857 58 29 C58.66 29.33 59.32 29.66 60 30 C52.37671233 39.38617294 43.6668287 46.37031996 32 50 C31.29875 50.37125 30.5975 50.7425 29.875 51.125 C28 52 28 52 24 52 C23.38125 53.134375 22.7625 54.26875 22.125 55.4375 C20.25 58.875 20.25 58.875 18 60 C17.83395264 59.43603516 17.66790527 58.87207031 17.49682617 58.29101562 C16.73006136 55.69311112 15.95880923 53.09655875 15.1875 50.5 C14.92646484 49.613125 14.66542969 48.72625 14.39648438 47.8125 C13.16837727 43.68848601 11.89575503 39.63688762 10.31640625 35.6328125 C9.18940332 32.52268572 8.72655905 30.59813075 8.75 27.375 C8.20394264 19.56031241 3.64250931 12.44969653 -0.28515625 5.8359375 C-1.18520376 3.52434008 -0.82029494 2.29682584 0 0 Z " fill="#BE9098" transform="translate(2,159)"/>
<path d="M0 0 C0.495 1.485 0.495 1.485 1 3 C-3.66666667 5.33333333 -8.33333333 7.66666667 -13 10 C-12.649375 11.19625 -12.29875 12.3925 -11.9375 13.625 C-10.98287828 17.37673012 -11.05016847 20.2006739 -12 24 C-12.99 24 -13.98 24 -15 24 C-14.6695166 24.72018311 -14.3390332 25.44036621 -13.99853516 26.18237305 C-12.957049 29.12119744 -12.83412809 30.99628792 -13.0234375 34.08203125 C-13.10078125 35.47905273 -13.10078125 35.47905273 -13.1796875 36.90429688 C-13.24414062 37.86400391 -13.30859375 38.82371094 -13.375 39.8125 C-13.43171875 40.79154297 -13.4884375 41.77058594 -13.546875 42.77929688 C-13.68781338 45.18699413 -13.83916828 47.59356337 -14 50 C-14.598125 49.690625 -15.19625 49.38125 -15.8125 49.0625 C-18.08956772 47.89790296 -18.08956772 47.89790296 -21 47 C-21 46.34 -21 45.68 -21 45 C-23.25399003 43.8432761 -25.51276476 42.77853076 -27.83984375 41.7734375 C-33.74980395 39.10538485 -38.26290484 36.92588576 -41.30078125 31.01953125 C-42.64420331 27.1393681 -42.6395827 23.78677072 -41.26171875 19.9375 C-39.62438441 17.4232033 -38.12833018 16.89224843 -35.375 15.75 C-29.18611874 12.86603507 -25.03475398 8.59114414 -20.67236328 3.42895508 C-18.57441333 1.63635638 -17.27938976 1.50759776 -14.55078125 1.26953125 C-13.27944336 1.14868164 -13.27944336 1.14868164 -11.98242188 1.02539062 C-11.10134766 0.95513672 -10.22027344 0.88488281 -9.3125 0.8125 C-8.41982422 0.73064453 -7.52714844 0.64878906 -6.60742188 0.56445312 C-4.40572602 0.36429896 -2.20368662 0.17663742 0 0 Z " fill="#AF8690" transform="translate(211,159)"/>
<path d="M0 0 C4.29165262 -0.02891949 8.58328036 -0.04677118 12.875 -0.0625 C14.70998047 -0.07506836 14.70998047 -0.07506836 16.58203125 -0.08789062 C18.33193359 -0.09272461 18.33193359 -0.09272461 20.1171875 -0.09765625 C21.73536377 -0.10551147 21.73536377 -0.10551147 23.38623047 -0.11352539 C26 0 26 0 28 1 C26.31215076 5.67404405 26.31215076 5.67404405 24.41015625 7.66015625 C22.34073459 11.09390576 22.98603462 14.3344239 23.25 18.1875 C23.60510363 27.7285995 20.87019413 34.73004615 16.81591797 43.22167969 C15.77436475 45.49177951 14.98767241 47.80302377 14.25 50.1875 C13.16476502 53.65216322 11.72504581 56.79634349 10 60 C9.01 59.505 9.01 59.505 8 59 C7.95875 58.278125 7.9175 57.55625 7.875 56.8125 C6.48752358 52.35275437 2.81106369 50.46277326 -1 48 C-1.66 47.67 -2.32 47.34 -3 47 C-3 46.34 -3 45.68 -3 45 C-0.83125748 45.50603992 0.99967627 45.99983813 3 47 C3 47.66 3 48.32 3 49 C3.8971875 49.185625 3.8971875 49.185625 4.8125 49.375 C7 50 7 50 10 52 C10.02907084 48.41668375 10.04682263 44.83339792 10.0625 41.25 C10.07506836 39.72632813 10.07506836 39.72632813 10.08789062 38.171875 C10.09111328 37.1921875 10.09433594 36.2125 10.09765625 35.203125 C10.10289307 34.30239258 10.10812988 33.40166016 10.11352539 32.47363281 C10.00762312 30.16610196 9.65132813 28.20865595 9 26 C9.99 26 10.98 26 12 26 C12.27036084 20.72796354 11.26305335 16.07476794 10 11 C10.88171875 10.814375 10.88171875 10.814375 11.78125 10.625 C13.98702639 10.00365454 15.56005408 9.1992393 17.5 8 C19.9788418 6.52868745 22.11592924 5.46145132 25 5 C24.505 4.01 24.505 4.01 24 3 C20.83081208 3.22274864 17.66576132 3.48322236 14.5 3.75 C13.1696875 3.8428125 13.1696875 3.8428125 11.8125 3.9375 C3.13395836 4.70325367 -2.85348536 7.19163719 -8.8125 13.6875 C-12.71135647 17.90378549 -12.71135647 17.90378549 -16 19 C-17.20882096 21.00016466 -17.20882096 21.00016466 -18 23 C-18.66 23 -19.32 23 -20 23 C-19.67 25.64 -19.34 28.28 -19 31 C-19.66 31 -20.32 31 -21 31 C-21 29.68 -21 28.36 -21 27 C-21.66 27 -22.32 27 -23 27 C-23.33 25.35 -23.66 23.7 -24 22 C-24.66 22.33 -25.32 22.66 -26 23 C-26.3125 20.3125 -26.3125 20.3125 -26 17 C-23.6875 14.3125 -23.6875 14.3125 -21 12 C-20.59265625 11.53335938 -20.1853125 11.06671875 -19.765625 10.5859375 C-17.17486324 8.25883734 -14.15958732 6.84346473 -11.0625 5.3125 C-10.44181641 4.99216797 -9.82113281 4.67183594 -9.18164062 4.34179688 C-5.78791121 2.64673927 -3.87452418 2 0 2 C0 1.34 0 0.68 0 0 Z " fill="#DABCBE" transform="translate(187,157)"/>
<path d="M0 0 C4.61363425 1.9001442 8.85220277 4.23480185 13 7 C13 7.66 13 8.32 13 9 C14.32 9.33 15.64 9.66 17 10 C17.62397689 20.8675975 17.62397689 20.8675975 15.3125 25.0625 C14.549375 25.701875 13.78625 26.34125 13 27 C12.29875 27.598125 11.5975 28.19625 10.875 28.8125 C6.11208167 30.77979235 0.58954298 31.03131364 -4.24609375 29.10546875 C-6 28 -6 28 -7 26 C-8.97522846 24.95191959 -10.97481509 23.9479589 -13 23 C-13.05428973 20.77110504 -13.09292338 18.54182529 -13.125 16.3125 C-13.15980469 14.45044922 -13.15980469 14.45044922 -13.1953125 12.55078125 C-12.94896755 8.07223015 -11.93616893 5.28289817 -9.3125 1.6875 C-5.92477169 -0.78462606 -4.14506007 -0.60170227 0 0 Z " fill="#624354" transform="translate(70,212)"/>
<path d="M0 0 C3.63 0 7.26 0 11 0 C11 0.99 11 1.98 11 3 C12.65 3.33 14.3 3.66 16 4 C16 4.66 16 5.32 16 6 C16.68964844 6.17015625 17.37929688 6.3403125 18.08984375 6.515625 C24.37734748 8.13709372 30.16109729 10.15984239 36 13 C36 13.66 36 14.32 36 15 C36.99 15.33 37.98 15.66 39 16 C39 16.66 39 17.32 39 18 C40.32 17.67 41.64 17.34 43 17 C44.28571429 25.57142857 44.28571429 25.57142857 43 29 C43.66 29.33 44.32 29.66 45 30 C37.37671233 39.38617294 28.6668287 46.37031996 17 50 C16.29875 50.37125 15.5975 50.7425 14.875 51.125 C13 52 13 52 9 52 C8.38125 53.134375 7.7625 54.26875 7.125 55.4375 C5.25 58.875 5.25 58.875 3 60 C2.34 56.7 1.68 53.4 1 50 C2.32 50.33 3.64 50.66 5 51 C7.36580526 49.75730768 7.36580526 49.75730768 9.6875 47.875 C12.91742187 45.47508742 16.05007541 43.34632154 19.625 41.5 C24.59000484 38.84080702 30.41899237 35.16201527 33 30 C32.34 30 31.68 30 31 30 C30.01 27.03 29.02 24.06 28 21 C25.69 20.67 23.38 20.34 21 20 C21.33 18.35 21.66 16.7 22 15 C23.32 15 24.64 15 26 15 C26 14.34 26 13.68 26 13 C25.319375 13.103125 24.63875 13.20625 23.9375 13.3125 C20.23635586 12.91876126 18.53027926 11.46834052 15.640625 9.23828125 C13.85827376 7.89303044 12.0071412 6.96640132 10 6 C9.34 5.34 8.68 4.68 8 4 C5.36 4.99 2.72 5.98 0 7 C0.33 5.68 0.66 4.36 1 3 C0.67 2.01 0.34 1.02 0 0 Z " fill="#D1A5AD" transform="translate(17,159)"/>
<path d="M0 0 C3.08695742 2.05797161 3.75127583 2.67200489 5 6 C5.74820503 11.58397229 6.06455422 17.23897779 2.9375 22.125 C-0.75803386 26.40349132 -5.15233778 26.80550924 -10.5625 27.375 C-15.54755025 26.83117634 -18.2859342 24.59979475 -21.875 21.25 C-23.59889287 17.80221427 -23.19124549 14.82490982 -23 11 C-22.34 11 -21.68 11 -21 11 C-21 10.34 -21 9.68 -21 9 C-19.9790625 8.7215625 -19.9790625 8.7215625 -18.9375 8.4375 C-15.39328835 6.70309856 -13.2954523 4.43916868 -10.6484375 1.55859375 C-7.24152757 -1.66263151 -4.26761435 -0.97799496 0 0 Z " fill="#574655" transform="translate(175,213)"/>
<path d="M0 0 C2.68594512 1.21151757 5.28082758 2.52919984 7.890625 3.89453125 C9.375625 4.38953125 9.375625 4.38953125 10.890625 4.89453125 C11.385625 6.37953125 11.385625 6.37953125 11.890625 7.89453125 C12.550625 8.47203125 13.210625 9.04953125 13.890625 9.64453125 C16.52087105 12.60355806 16.4538618 15.03645631 16.890625 18.89453125 C17.550625 19.22453125 18.210625 19.55453125 18.890625 19.89453125 C18.890625 23.52453125 18.890625 27.15453125 18.890625 30.89453125 C11.37703603 34.50931632 5.27847771 36.72960508 -3.109375 35.89453125 C-2.779375 34.90453125 -2.449375 33.91453125 -2.109375 32.89453125 C-1.449375 32.89453125 -0.789375 32.89453125 -0.109375 32.89453125 C-0.109375 32.23453125 -0.109375 31.57453125 -0.109375 30.89453125 C-0.76164062 30.91773438 -1.41390625 30.9409375 -2.0859375 30.96484375 C-7.21141219 31.07067951 -11.29915719 30.88901181 -16.109375 28.89453125 C-17.099375 28.56453125 -18.089375 28.23453125 -19.109375 27.89453125 C-23.12574479 21.40654928 -23.8814559 13.37714509 -23.109375 5.89453125 C-18.54273533 -2.95162405 -8.4133749 -2.99118731 0 0 Z M-16.984375 2.14453125 C-20.50665213 6.70277224 -20.22455875 10.45468667 -20.171875 16.14453125 C-20.16285156 17.4078125 -20.15382812 18.67109375 -20.14453125 19.97265625 C-20.13292969 20.936875 -20.12132812 21.90109375 -20.109375 22.89453125 C-19.15546875 23.35601562 -18.2015625 23.8175 -17.21875 24.29296875 C-14.53289017 25.67638901 -13.08769792 26.71837603 -11.109375 28.89453125 C-7.39956219 30.74943766 -3.15814107 30.34854035 0.890625 29.89453125 C4.87995243 27.86360092 7.58896802 25.72619142 9.890625 21.89453125 C10.25220379 18.84678675 10.25220379 18.84678675 10.078125 15.64453125 C10.05105469 14.566875 10.02398437 13.48921875 9.99609375 12.37890625 C9.94388672 11.14914063 9.94388672 11.14914063 9.890625 9.89453125 C8.570625 9.56453125 7.250625 9.23453125 5.890625 8.89453125 C5.890625 8.23453125 5.890625 7.57453125 5.890625 6.89453125 C3.74597714 5.33165092 3.74597714 5.33165092 1.078125 3.83203125 C0.18480469 3.30480469 -0.70851563 2.77757812 -1.62890625 2.234375 C-6.98257204 -0.65744762 -11.9629155 -1.78530662 -16.984375 2.14453125 Z " fill="#956F7C" transform="translate(77.109375,212.10546875)"/>
<path d="M0 0 C0.66 0 1.32 0 2 0 C2.26375784 4.13220617 2.10831664 6.99180413 0.5 10.8125 C-1.24464026 15.59165673 -1.30439913 20.15837985 -1.3125 25.1875 C-1.31765625 25.96005127 -1.3228125 26.73260254 -1.328125 27.52856445 C-1.27276263 32.11326074 -0.52424364 35.64330362 1 40 C1.23046875 43.10546875 1.23046875 43.10546875 1.1875 46.1875 C1.17783203 47.72470703 1.17783203 47.72470703 1.16796875 49.29296875 C1 52 1 52 0 55 C-0.07051114 57.73865287 -0.09357765 60.45027588 -0.0625 63.1875 C-0.05798828 63.93708984 -0.05347656 64.68667969 -0.04882812 65.45898438 C-0.03706354 67.30602383 -0.01912865 69.15302213 0 71 C-4.33570526 68.10952982 -4.91543386 64.70835936 -6.04296875 59.81640625 C-7.32563285 53.26822483 -7.30058839 46.71400204 -7.26074219 40.06811523 C-7.25000101 37.93770002 -7.26070267 35.80812444 -7.2734375 33.67773438 C-7.28065231 26.50364988 -6.94437469 19.92773502 -5 13 C-4.81066895 12.31276855 -4.62133789 11.62553711 -4.42626953 10.91748047 C-3.96849516 9.27330413 -3.48722693 7.63569041 -3 6 C-2.34 6 -1.68 6 -1 6 C-0.67 4.02 -0.34 2.04 0 0 Z " fill="#A06460" transform="translate(8,317)"/>
<path d="M0 0 C0 0.66 0 1.32 0 2 C-1.155 2 -2.31 2 -3.5 2 C-8.62386379 2.57234649 -10.91964213 5.4985049 -14.140625 9.28515625 C-16 11 -16 11 -20 11 C-20 11.66 -20 12.32 -20 13 C-20.66 13 -21.32 13 -22 13 C-21.74379316 14.6065676 -21.46944129 16.2102483 -21.1875 17.8125 C-21.03667969 18.70582031 -20.88585937 19.59914062 -20.73046875 20.51953125 C-19.73237399 23.90878352 -18.10170303 25.2524158 -15.25 27.1875 C-10.57822891 28.87452845 -5.73612014 28.14815034 -1 27 C-3 30 -3 30 -5.125 30.6875 C-5.74375 30.790625 -6.3625 30.89375 -7 31 C-7.33 32.32 -7.66 33.64 -8 35 C-14.207149 35.33252584 -18.29875684 34.50054525 -24 32 C-25.89265562 30.10734438 -25.21788439 26.96125147 -25.25 24.4375 C-25.19557292 18.4989013 -24.85678118 14.22101389 -22 9 C-19.53019987 7.07235112 -18.14167226 6 -15 6 C-15 5.34 -15 4.68 -15 4 C-9.60931587 0.40621058 -6.46326465 -0.45356243 0 0 Z " fill="#907178" transform="translate(174,211)"/>
<path d="M0 0 C0.86625 -0.00515625 1.7325 -0.0103125 2.625 -0.015625 C5 0.25 5 0.25 8 2.25 C10.06361032 6.85554092 10.25006823 11.1607532 10.125 16.125 C10.11597656 16.81335938 10.10695312 17.50171875 10.09765625 18.2109375 C10.07432513 19.89077838 10.03846326 21.57043746 10 23.25 C9.34 23.25 8.68 23.25 8 23.25 C8 24.260625 8 25.27125 8 26.3125 C7.34648007 30.88713952 4.69030031 33.12386365 1.2109375 35.9375 C-2.11387833 37.91124226 -4.22628317 37.8003337 -8 37.25 C-7.8125 34.875 -7.8125 34.875 -7 32.25 C-5.35965807 31.52095914 -3.68698082 30.86344757 -2 30.25 C3.14563078 25.71734792 3.14563078 25.71734792 5.265625 19.47265625 C5.26046875 18.42980469 5.2553125 17.38695312 5.25 16.3125 C5.25515625 15.27222656 5.2603125 14.23195312 5.265625 13.16015625 C5.00089935 10.25985315 4.61039525 8.64948893 3 6.25 C2.01 5.59 1.02 4.93 0 4.25 C0 3.59 0 2.93 0 2.25 C-2.64 2.25 -5.28 2.25 -8 2.25 C-4.76085771 0.09057181 -3.75140267 -0.02232978 0 0 Z " fill="#A58998" transform="translate(174,208.75)"/>
<path d="M0 0 C0.99 0.33 1.98 0.66 3 1 C-4.62328767 10.38617294 -13.3331713 17.37031996 -25 21 C-25.70125 21.37125 -26.4025 21.7425 -27.125 22.125 C-29 23 -29 23 -33 23 C-33.61875 24.134375 -34.2375 25.26875 -34.875 26.4375 C-36.75 29.875 -36.75 29.875 -39 31 C-39.66 27.7 -40.32 24.4 -41 21 C-39.68 21.33 -38.36 21.66 -37 22 C-34.63419474 20.75730768 -34.63419474 20.75730768 -32.3125 18.875 C-28.31185633 15.91002592 -24.30327448 13.37905521 -19.91015625 11.04296875 C-17.77437897 9.91322223 -17.77437897 9.91322223 -15 8 C-13.31422289 8.61674772 -11.64551962 9.28272222 -10 10 C-9.34 9.67 -8.68 9.34 -8 9 C-7.67 8.01 -7.34 7.02 -7 6 C-5.4765625 4.359375 -5.4765625 4.359375 -3.625 2.75 C-2.71621094 1.93789062 -2.71621094 1.93789062 -1.7890625 1.109375 C-1.19867188 0.74328125 -0.60828125 0.3771875 0 0 Z " fill="#DBB2BA" transform="translate(59,188)"/>
<path d="M0 0 C0.66 0 1.32 0 2 0 C2.26375784 4.13220617 2.10831664 6.99180413 0.5 10.8125 C-1.24464026 15.59165673 -1.30439913 20.15837985 -1.3125 25.1875 C-1.31765625 25.96005127 -1.3228125 26.73260254 -1.328125 27.52856445 C-1.27278694 32.11124726 -0.53472437 35.6476176 1 40 C1.30078125 43.10546875 1.30078125 43.10546875 1.3125 46.1875 C1.32925781 47.21230469 1.34601562 48.23710937 1.36328125 49.29296875 C0.95829917 52.31073847 0.37158509 53.17907319 -2 55 C-4.15649645 42.6386543 -4.22304384 30.51962211 -4 18 C-4.66 17.67 -5.32 17.34 -6 17 C-5.01 13.37 -4.02 9.74 -3 6 C-2.34 6 -1.68 6 -1 6 C-0.67 4.02 -0.34 2.04 0 0 Z " fill="#B37B75" transform="translate(8,317)"/>
<path d="M0 0 C1.65 0 3.3 0 5 0 C6.34257975 6.22468793 6.34257975 6.22468793 4.8125 9.6875 C3.01366863 11.98256071 1.1332885 14.01383484 -1 16 C-0.44570313 15.83242187 0.10859375 15.66484375 0.6796875 15.4921875 C1.40414062 15.28851563 2.12859375 15.08484375 2.875 14.875 C3.59429687 14.66617188 4.31359375 14.45734375 5.0546875 14.2421875 C5.69664063 14.16226563 6.33859375 14.08234375 7 14 C7.66 14.66 8.32 15.32 9 16 C7.329375 16.4640625 7.329375 16.4640625 5.625 16.9375 C2.2054845 17.82326483 2.2054845 17.82326483 0 19 C0 18.34 0 17.68 0 17 C-0.66 17 -1.32 17 -2 17 C-3.7265625 14.91796875 -3.7265625 14.91796875 -5.625 12.1875 C-6.57246094 10.84751953 -6.57246094 10.84751953 -7.5390625 9.48046875 C-9 7 -9 7 -9 4 C-5.81237635 1.87491756 -3.73487777 1.4979837 0 1 C0 0.67 0 0.34 0 0 Z " fill="#D0A8AC" transform="translate(33,216)"/>
<path d="M0 0 C1.02673828 0.01353516 2.05347656 0.02707031 3.11132812 0.04101562 C5.63725909 0.07626117 8.1621066 0.125533 10.6875 0.1875 C10.6875 0.5175 10.6875 0.8475 10.6875 1.1875 C9.84155273 1.24695801 9.84155273 1.24695801 8.97851562 1.30761719 C6.37989434 1.50022589 3.78404123 1.71869035 1.1875 1.9375 C-0.1428125 2.0303125 -0.1428125 2.0303125 -1.5 2.125 C-10.17854164 2.89075367 -16.16598536 5.37913719 -22.125 11.875 C-26.02385647 16.09128549 -26.02385647 16.09128549 -29.3125 17.1875 C-30.52132096 19.18766466 -30.52132096 19.18766466 -31.3125 21.1875 C-31.9725 21.1875 -32.6325 21.1875 -33.3125 21.1875 C-32.9825 23.8275 -32.6525 26.4675 -32.3125 29.1875 C-32.9725 29.1875 -33.6325 29.1875 -34.3125 29.1875 C-34.3125 27.8675 -34.3125 26.5475 -34.3125 25.1875 C-34.9725 25.1875 -35.6325 25.1875 -36.3125 25.1875 C-36.88068623 22.03090986 -37.07061718 19.32241699 -36.3125 16.1875 C-33.66243361 13.53743361 -30.61950888 11.9080384 -27.3125 10.1875 C-26.425625 9.65125 -25.53875 9.115 -24.625 8.5625 C-23.861875 8.10875 -23.09875 7.655 -22.3125 7.1875 C-21.3225 6.5275 -20.3325 5.8675 -19.3125 5.1875 C-18.3225 4.5275 -17.3325 3.8675 -16.3125 3.1875 C-15.65894531 2.65511719 -15.00539062 2.12273437 -14.33203125 1.57421875 C-9.65225026 -0.57496916 -5.07925805 -0.12673772 0 0 Z " fill="#D2ADB4" transform="translate(200.3125,158.8125)"/>
<path d="M0 0 C0 0.33 0 0.66 0 1 C-0.74765625 1.02578125 -1.4953125 1.0515625 -2.265625 1.078125 C-8.2997864 1.30853123 -8.2997864 1.30853123 -13.625 3.8125 C-16.2649967 8.01249475 -16.24602021 12.36716901 -16.5625 17.25 C-16.64628906 18.51328125 -16.73007812 19.7765625 -16.81640625 21.078125 C-16.87699219 22.04234375 -16.93757813 23.0065625 -17 24 C-16.030625 24.268125 -15.06125 24.53625 -14.0625 24.8125 C-13.051875 25.204375 -12.04125 25.59625 -11 26 C-10.67 26.99 -10.34 27.98 -10 29 C-4.72 29.66 0.56 30.32 6 31 C6 31.99 6 32.98 6 34 C9.81813447 33.72459296 9.81813447 33.72459296 13 32 C15.33297433 31.95907063 17.66705225 31.95758277 20 32 C13.14060597 36.57292936 8.12845694 37.44158619 0 37 C0.33 36.01 0.66 35.02 1 34 C1.66 34 2.32 34 3 34 C3 33.34 3 32.68 3 32 C2.34773438 32.02320313 1.69546875 32.04640625 1.0234375 32.0703125 C-4.10203719 32.17614826 -8.18978219 31.99448056 -13 30 C-13.99 29.67 -14.98 29.34 -16 29 C-20.01636979 22.51201803 -20.7720809 14.48261384 -20 7 C-15.83663937 -1.06495307 -8.08520353 -0.84894637 0 0 Z " fill="#A27985" transform="translate(74,211)"/>
<path d="M0 0 C2.31 0.33 4.62 0.66 7 1 C7.33 1.99 7.66 2.98 8 4 C10.60242414 5.64820195 11.86248779 6 15 6 C15 6.99 15 7.98 15 9 C15.66 9 16.32 9 17 9 C16.4375 12.375 16.4375 12.375 15 16 C11.41015625 17.2265625 11.41015625 17.2265625 8 18 C6.84917315 15.75243216 5.70423142 13.50218252 4.5625 11.25 C4.23701172 10.61578125 3.91152344 9.9815625 3.57617188 9.328125 C2.02936335 6.26640092 0.6084922 3.39384379 0 0 Z " fill="#E8D2D1" transform="translate(2,163)"/>
<path d="M0 0 C3.63 0 7.26 0 11 0 C11 0.99 11 1.98 11 3 C12.65 3.33 14.3 3.66 16 4 C16 4.66 16 5.32 16 6 C16.70125 6.18175781 17.4025 6.36351562 18.125 6.55078125 C23.89678529 8.07999067 29.44899107 9.80054363 35 12 C34.360625 12.2475 33.72125 12.495 33.0625 12.75 C30.81258459 13.81562433 30.81258459 13.81562433 30.25 16.125 C30.12625 17.053125 30.12625 17.053125 30 18 C28 16.625 28 16.625 26 15 C26 14.34 26 13.68 26 13 C25.319375 13.103125 24.63875 13.20625 23.9375 13.3125 C20.23635586 12.91876126 18.53027926 11.46834052 15.640625 9.23828125 C13.85827376 7.89303044 12.0071412 6.96640132 10 6 C9.34 5.34 8.68 4.68 8 4 C5.36 4.99 2.72 5.98 0 7 C0.33 5.68 0.66 4.36 1 3 C0.67 2.01 0.34 1.02 0 0 Z " fill="#ECC4C9" transform="translate(17,159)"/>
<path d="M0 0 C7.92 0 15.84 0 24 0 C24 0.33 24 0.66 24 1 C16.74 1 9.48 1 2 1 C1.34 2.32 0.68 3.64 0 5 C-1.83984375 6.16015625 -1.83984375 6.16015625 -3.9375 7.0625 C-6.92155934 8.36209967 -8.74184751 9.67397954 -11 12 C-12.99145391 13.01691264 -14.99187074 14.01642648 -17 15 C-17.7425 15.556875 -18.485 16.11375 -19.25 16.6875 C-21 18 -21 18 -23 18 C-23.12375 18.639375 -23.2475 19.27875 -23.375 19.9375 C-23.58125 20.618125 -23.7875 21.29875 -24 22 C-24.66 22.33 -25.32 22.66 -26 23 C-26.3125 20.3125 -26.3125 20.3125 -26 17 C-23.6875 14.3125 -23.6875 14.3125 -21 12 C-20.59265625 11.53335938 -20.1853125 11.06671875 -19.765625 10.5859375 C-17.17486324 8.25883734 -14.15958732 6.84346473 -11.0625 5.3125 C-10.44181641 4.99216797 -9.82113281 4.67183594 -9.18164062 4.34179688 C-5.78791121 2.64673927 -3.87452418 2 0 2 C0 1.34 0 0.68 0 0 Z " fill="#EACDD1" transform="translate(187,157)"/>
<path d="M0 0 C0.73046875 2.25 0.73046875 2.25 1 5 C-0.51171875 7.0625 -0.51171875 7.0625 -2.6875 9 C-5.16088779 11.27914267 -7.27744094 13.35045171 -9.375 16 C-9.91125 16.66 -10.4475 17.32 -11 18 C-11.66 18 -12.32 18 -13 18 C-12.66215515 14.92772342 -12.34358057 13.36283293 -10.1875 11.0859375 C-9.1046875 10.23902344 -9.1046875 10.23902344 -8 9.375 C-4.6749581 6.81132796 -4.6749581 6.81132796 -3 3 C-4.41152344 3.10828125 -4.41152344 3.10828125 -5.8515625 3.21875 C-7.09679687 3.3115625 -8.34203125 3.404375 -9.625 3.5 C-10.85476562 3.5928125 -12.08453125 3.685625 -13.3515625 3.78125 C-15.66992639 3.92025255 -17.993937 3.99297571 -20.31640625 3.9765625 C-23.18093319 4.0015802 -24.63355928 4.42237285 -27 6 C-27.33 6.66 -27.66 7.32 -28 8 C-28.66 8 -29.32 8 -30 8 C-30.33 6.35 -30.66 4.7 -31 3 C-27.93550064 0.95700043 -27.10478996 0.7281801 -23.61328125 0.5859375 C-22.75669922 0.54726563 -21.90011719 0.50859375 -21.01757812 0.46875 C-19.67856445 0.42234375 -19.67856445 0.42234375 -18.3125 0.375 C-17.43916016 0.33632813 -16.56582031 0.29765625 -15.66601562 0.2578125 C-10.4402996 0.03926127 -5.22989769 -0.03653014 0 0 Z " fill="#AF777B" transform="translate(143,282)"/>
<path d="M0 0 C1.89470816 0.0685495 3.7916834 0.08480372 5.6875 0.0625 C6.68136719 0.05347656 7.67523438 0.04445312 8.69921875 0.03515625 C9.45847656 0.02355469 10.21773437 0.01195312 11 0 C10.34 1.32 9.68 2.64 9 4 C2.07 3.67 -4.86 3.34 -12 3 C-12 3.66 -12 4.32 -12 5 C-12.763125 5.20625 -13.52625 5.4125 -14.3125 5.625 C-17.82229103 7.42070704 -18.52599781 9.43136312 -20 13 C-20.66 12.67 -21.32 12.34 -22 12 C-20.37071233 6.16171919 -18.28051097 2.52034065 -13.1875 -0.875 C-8.39150909 -2.56770267 -4.71703434 -1.57234478 0 0 Z " fill="#E7BAC4" transform="translate(71,206)"/>
<path d="M0 0 C0.66 0 1.32 0 2 0 C4.17204 2.96187272 5.83561997 5.50685991 7 9 C7.66 9 8.32 9 9 9 C9 9.66 9 10.32 9 11 C10.32 11.33 11.64 11.66 13 12 C13 12.66 13 13.32 13 14 C7.72 14 2.44 14 -3 14 C-2.67 12.35 -2.34 10.7 -2 9 C-1.34 9 -0.68 9 0 9 C-0.185625 7.88625 -0.37125 6.7725 -0.5625 5.625 C-1 2 -1 2 0 0 Z " fill="#70383C" transform="translate(193,386)"/>
<path d="M0 0 C5.34134758 0.08756308 5.34134758 0.08756308 8 1 C9.79576726 4.08647498 11 6.39076593 11 10 C11.66 10 12.32 10 13 10 C10.56898306 15.42303778 7.53584587 17.76436994 2 20 C-1.875 20.1875 -1.875 20.1875 -5 20 C-5 18.35 -5 16.7 -5 15 C-3.02 15.99 -3.02 15.99 -1 17 C0.11375 15.7625 0.11375 15.7625 1.25 14.5 C4 12 4 12 8 12 C7.67 9.36 7.34 6.72 7 4 C6.030625 3.71125 5.06125 3.4225 4.0625 3.125 C1 2 1 2 0 0 Z " fill="#B98A93" transform="translate(37,179)"/>
<path d="M0 0 C0.86625 -0.00515625 1.7325 -0.0103125 2.625 -0.015625 C5 0.25 5 0.25 8 2.25 C8.34057617 4.22119141 8.34057617 4.22119141 8.29296875 6.6015625 C8.28330078 7.45234375 8.27363281 8.303125 8.26367188 9.1796875 C8.23853516 10.06914062 8.21339844 10.95859375 8.1875 11.875 C8.16719727 13.22078125 8.16719727 13.22078125 8.14648438 14.59375 C8.11106925 16.81309789 8.06168461 19.03125188 8 21.25 C7.34 21.25 6.68 21.25 6 21.25 C5.95101562 20.50234375 5.90203125 19.7546875 5.8515625 18.984375 C5.77679688 17.99953125 5.70203125 17.0146875 5.625 16 C5.55539063 15.02546875 5.48578125 14.0509375 5.4140625 13.046875 C5.0067578 10.29564704 4.50814655 8.56864708 3 6.25 C2.01 5.59 1.02 4.93 0 4.25 C0 3.59 0 2.93 0 2.25 C-2.64 2.25 -5.28 2.25 -8 2.25 C-4.76085771 0.09057181 -3.75140267 -0.02232978 0 0 Z " fill="#9E7D8E" transform="translate(174,208.75)"/>
<path d="M0 0 C0.66 0.66 1.32 1.32 2 2 C1.319375 2.350625 0.63875 2.70125 -0.0625 3.0625 C-2.63017357 4.75607193 -4.34310589 6.29855908 -6.4375 8.5 C-9.36251104 11.51422706 -12.02857653 13.46558639 -16 15 C-16.99 15 -17.98 15 -19 15 C-19.33 16.32 -19.66 17.64 -20 19 C-20.66 19 -21.32 19 -22 19 C-22 20.98 -22 22.96 -22 25 C-22.33 25 -22.66 25 -23 25 C-23 22.69 -23 20.38 -23 18 C-22.34 17.67 -21.68 17.34 -21 17 C-20.731875 16.38125 -20.46375 15.7625 -20.1875 15.125 C-18.62107193 12.32191818 -16.75616799 11.6537008 -14 10 C-12.85397729 8.85397729 -11.73058184 7.68508435 -10.625 6.5 C-7.33789756 3.08285835 -4.4566853 1.54619694 0 0 Z " fill="#C79FA7" transform="translate(190,162)"/>
<path d="M0 0 C1.65 0 3.3 0 5 0 C6.34382872 6.23047859 6.34382872 6.23047859 4.6875 9.9375 C3.8521875 10.9584375 3.8521875 10.9584375 3 12 C2.34 12 1.68 12 1 12 C1.66 9.69 2.32 7.38 3 5 C2.38511719 5.144375 1.77023438 5.28875 1.13671875 5.4375 C0.32847656 5.623125 -0.47976562 5.80875 -1.3125 6 C-2.51326172 6.2784375 -2.51326172 6.2784375 -3.73828125 6.5625 C-6 7 -6 7 -9 7 C-9 6.01 -9 5.02 -9 4 C-5.81237635 1.87491756 -3.73487777 1.4979837 0 1 C0 0.67 0 0.34 0 0 Z " fill="#D8ADB2" transform="translate(33,216)"/>
<path d="M0 0 C2.5 1.5 2.5 1.5 4 3 C3.67 3.66 3.34 4.32 3 5 C2.34 4.67 1.68 4.34 1 4 C-1.2072923 3.92907158 -3.41667452 3.91584975 -5.625 3.9375 C-7.40777344 3.95103516 -7.40777344 3.95103516 -9.2265625 3.96484375 C-10.59941406 3.98224609 -10.59941406 3.98224609 -12 4 C-12 4.66 -12 5.32 -12 6 C-13.65 6 -15.3 6 -17 6 C-17 6.66 -17 7.32 -17 8 C-17.99 8 -18.98 8 -20 8 C-20 5.69 -20 3.38 -20 1 C-19.505 1.391875 -19.01 1.78375 -18.5 2.1875 C-15.138387 3.28002423 -13.30372064 2.06536086 -10.15625 0.75 C-6.57293935 -0.49636892 -3.77810616 -0.37781062 0 0 Z " fill="#D4ADBB" transform="translate(178,206)"/>
<path d="M0 0 C0.66 0 1.32 0 2 0 C1.29186565 4.95694043 -0.45443775 8.45443775 -4 12 C-0.87802522 10.6910428 -0.87802522 10.6910428 1 8 C1.66 8.33 2.32 8.66 3 9 C-0.01228857 14.16392327 -3.99700328 15.50575259 -9.34375 17.49609375 C-12.38906289 18.07380752 -13.46152859 17.682336 -16 16 C-16 15.34 -16 14.68 -16 14 C-14.989375 13.95875 -13.97875 13.9175 -12.9375 13.875 C-8.16640678 13.17679124 -5.0137985 10.68172141 -2 7 C-0.91885769 4.60809223 -0.46995254 2.61084746 0 0 Z " fill="#BD9CA7" transform="translate(182,232)"/>
<path d="M0 0 C-0.5775 0.185625 -1.155 0.37125 -1.75 0.5625 C-5.01224646 2.64671302 -6.52977882 5.51789721 -8 9 C-9.18526557 14.72878361 -10.06643805 19.8253858 -7 25 C-9.475 24.01 -9.475 24.01 -12 23 C-12.05428973 20.77110504 -12.09292338 18.54182529 -12.125 16.3125 C-12.15980469 14.45044922 -12.15980469 14.45044922 -12.1953125 12.55078125 C-11.94741244 8.04395815 -10.95539208 5.2624824 -8.25 1.6875 C-5.35715051 -0.48213712 -3.53164047 -0.32105822 0 0 Z " fill="#865C66" transform="translate(69,212)"/>
<path d="M0 0 C2.16874252 0.50603992 3.99967627 0.99983813 6 2 C6 2.66 6 3.32 6 4 C6.598125 4.12375 7.19625 4.2475 7.8125 4.375 C10 5 10 5 13 7 C13 5.02 13 3.04 13 1 C15.66053508 3.66053508 15.78483954 5.27055195 16 9 C14.5625 12.375 14.5625 12.375 13 15 C12.34 14.67 11.68 14.34 11 14 C10.95875 13.278125 10.9175 12.55625 10.875 11.8125 C9.48752358 7.35275437 5.81106369 5.46277326 2 3 C1.34 2.67 0.68 2.34 0 2 C0 1.34 0 0.68 0 0 Z " fill="#CDA5AD" transform="translate(184,202)"/>
<path d="M0 0 C1.32 0.66 2.64 1.32 4 2 C2.28799717 3.71200283 0.01805483 3.16976773 -2.3203125 3.2109375 C-3.96 3.25347656 -3.96 3.25347656 -5.6328125 3.296875 C-7.93734855 3.34843062 -10.24205666 3.3928525 -12.546875 3.4296875 C-18.76481174 3.60443045 -23.49802529 4.01777023 -29 7 C-28.34 5.68 -27.68 4.36 -27 3 C-25.68 3 -24.36 3 -23 3 C-23 2.34 -23 1.68 -23 1 C-22.3387915 1.00523682 -21.67758301 1.01047363 -20.99633789 1.01586914 C-18.01840149 1.03657656 -15.04048018 1.04964012 -12.0625 1.0625 C-11.02158203 1.07087891 -9.98066406 1.07925781 -8.90820312 1.08789062 C-7.42416992 1.09272461 -7.42416992 1.09272461 -5.91015625 1.09765625 C-4.99371338 1.10289307 -4.07727051 1.10812988 -3.13305664 1.11352539 C-1.01636977 1.23921211 -1.01636977 1.23921211 0 0 Z " fill="#C89EA8" transform="translate(82,208)"/>
<path d="M0 0 C-4.50383076 3.53219215 -8.81391475 6.52482295 -14 9 C-14.7425 9.556875 -15.485 10.11375 -16.25 10.6875 C-18 12 -18 12 -20 12 C-20.12375 12.639375 -20.2475 13.27875 -20.375 13.9375 C-20.58125 14.618125 -20.7875 15.29875 -21 16 C-21.66 16.33 -22.32 16.66 -23 17 C-23 15.02 -23 13.04 -23 11 C-22.071875 10.5875 -21.14375 10.175 -20.1875 9.75 C-16.99387574 8.29456417 -16.99387574 8.29456417 -15.5625 6 C-13.26532754 3.05961925 -10.43018522 2.32393114 -7 1 C-6.2575 0.5875 -5.515 0.175 -4.75 -0.25 C-3 -1 -3 -1 0 0 Z " fill="#E4C3C9" transform="translate(184,163)"/>
<path d="M0 0 C0.66 0.33 1.32 0.66 2 1 C1.505 1.37125 1.01 1.7425 0.5 2.125 C-1.64945323 4.81181653 -1.34274009 6.64114713 -1 10 C-0.10168984 12.30230766 -0.10168984 12.30230766 1 14 C0.34 14.66 -0.32 15.32 -1 16 C-1.2165625 17.7015625 -1.2165625 17.7015625 -1.4375 19.4375 C-1.99181222 22.94814405 -2.23313124 23.95492309 -5 26 C-4.979375 25.2575 -4.95875 24.515 -4.9375 23.75 C-4.99328688 21.29537721 -5.3069904 19.33890739 -6 17 C-5.01 17 -4.02 17 -3 17 C-2.72963916 11.72796354 -3.73694665 7.07476794 -5 2 C-4.360625 1.855625 -3.72125 1.71125 -3.0625 1.5625 C-1.02454854 1.18992819 -1.02454854 1.18992819 0 0 Z " fill="#CAA5AC" transform="translate(202,166)"/>
<path d="M0 0 C0.99 0.33 1.98 0.66 3 1 C-3.2186255 8.65668264 -10.10609019 14.64024029 -19 19 C-19.99 18.67 -20.98 18.34 -22 18 C-21 16 -21 16 -18.1875 15 C-17.135625 14.67 -16.08375 14.34 -15 14 C-12.07903273 12.74815689 -10.05363217 11.4448002 -8 9 C-7.67 8.01 -7.34 7.02 -7 6 C-5.4765625 4.359375 -5.4765625 4.359375 -3.625 2.75 C-3.01914062 2.20859375 -2.41328125 1.6671875 -1.7890625 1.109375 C-1.19867188 0.74328125 -0.60828125 0.3771875 0 0 Z " fill="#EBC1C9" transform="translate(59,188)"/>
<path d="M0 0 C2.05859375 -0.328125 2.05859375 -0.328125 4.4375 -0.25 C5.61119141 -0.22679687 5.61119141 -0.22679687 6.80859375 -0.203125 C9 0 9 0 12 1 C12.7425 0.835 13.485 0.67 14.25 0.5 C17.69467864 -0.12630521 20.57364074 0.39534837 24 1 C20.80542649 2.88414642 18.48497371 3.23819737 14.796875 3.1953125 C13.8171875 3.18886719 12.8375 3.18242187 11.828125 3.17578125 C10.81234375 3.15902344 9.7965625 3.14226562 8.75 3.125 C7.71875 3.11597656 6.6875 3.10695313 5.625 3.09765625 C3.08309713 3.07412011 0.5416672 3.04124023 -2 3 C-1.34 2.01 -0.68 1.02 0 0 Z " fill="#CF999E" transform="translate(115,279)"/>
<path d="M0 0 C-0.99 1.485 -0.99 1.485 -2 3 C-4.15478516 3.2487793 -4.15478516 3.2487793 -6.7890625 3.07421875 C-8.20058594 2.99204102 -8.20058594 2.99204102 -9.640625 2.90820312 C-10.62546875 2.83537109 -11.6103125 2.76253906 -12.625 2.6875 C-13.61757812 2.62626953 -14.61015625 2.56503906 -15.6328125 2.50195312 C-18.08976785 2.34839342 -20.54490157 2.18051265 -23 2 C-22.67 1.34 -22.34 0.68 -22 0 C-18.89635771 -0.19696449 -15.79207808 -0.38093262 -12.6875 -0.5625 C-11.36588867 -0.64661133 -11.36588867 -0.64661133 -10.01757812 -0.73242188 C-8.74624023 -0.80493164 -8.74624023 -0.80493164 -7.44921875 -0.87890625 C-6.27879028 -0.94960327 -6.27879028 -0.94960327 -5.0847168 -1.02172852 C-3 -1 -3 -1 0 0 Z M-24 2 C-23.67 2.66 -23.34 3.32 -23 4 C-24.32 3.67 -25.64 3.34 -27 3 C-26.01 2.67 -25.02 2.34 -24 2 Z " fill="#DFB5BE" transform="translate(82,207)"/>
<path d="M0 0 C0.99 0 1.98 0 3 0 C3.33 1.65 3.66 3.3 4 5 C1.28817788 7.60334924 0.10866187 7.99456691 -3.75 8.1875 C-5.35875 8.0946875 -5.35875 8.0946875 -7 8 C-6.8125 5.625 -6.8125 5.625 -6 3 C-3.5 1.75 -3.5 1.75 -1 1 C-0.67 0.67 -0.34 0.34 0 0 Z " fill="#AF8F9C" transform="translate(173,238)"/>
<path d="M0 0 C0 0.66 0 1.32 0 2 C-1.155 2 -2.31 2 -3.5 2 C-8.62386379 2.57234649 -10.91964213 5.4985049 -14.140625 9.28515625 C-16 11 -16 11 -20 11 C-20.33 11.66 -20.66 12.32 -21 13 C-21 12.01 -21 11.02 -21 10 C-20.34 10 -19.68 10 -19 10 C-18.34 8.68 -17.68 7.36 -17 6 C-16.34 6 -15.68 6 -15 6 C-15 5.34 -15 4.68 -15 4 C-9.60931587 0.40621058 -6.46326465 -0.45356243 0 0 Z " fill="#785967" transform="translate(174,211)"/>
<path d="M0 0 C1.65 0 3.3 0 5 0 C4.01 1.485 4.01 1.485 3 3 C2.18734439 6.16935688 2 8.68621674 2 12 C0.5 14.25 0.5 14.25 -1 16 C-2.89455962 10.31632113 -2.14711018 5.50196983 0 0 Z " fill="#D49E9E" transform="translate(9,326)"/>
<path d="M0 0 C0.66 0 1.32 0 2 0 C3.04976964 3.14930893 3.10131595 5.38814456 3.0625 8.6875 C3.05347656 9.68136719 3.04445312 10.67523438 3.03515625 11.69921875 C3.02355469 12.45847656 3.01195312 13.21773438 3 14 C1.02 14 -0.96 14 -3 14 C-2.67 12.35 -2.34 10.7 -2 9 C-1.34 9 -0.68 9 0 9 C-0.185625 7.88625 -0.37125 6.7725 -0.5625 5.625 C-1 2 -1 2 0 0 Z " fill="#7C4A4B" transform="translate(193,386)"/>
<path d="M0 0 C0 0.33 0 0.66 0 1 C-1.10408203 1.00386719 -1.10408203 1.00386719 -2.23046875 1.0078125 C-7.86773383 1.04897408 -7.86773383 1.04897408 -12.7734375 3.40234375 C-13.92170605 4.88117446 -14.96912827 6.43706544 -16 8 C-16.66 8 -17.32 8 -18 8 C-18 12.62 -18 17.24 -18 22 C-18.33 22 -18.66 22 -19 22 C-21.10980965 9.19279611 -21.10980965 9.19279611 -18.70703125 4.4453125 C-13.26080049 -0.96723023 -7.28600108 -0.76503011 0 0 Z " fill="#A97F89" transform="translate(74,211)"/>
<path d="M0 0 C3.90694321 -0.17758833 6.70611329 -0.23513741 10 2 C10.99 3.485 10.99 3.485 12 5 C13.64142963 6.0409066 15.30712215 7.04504326 17 8 C18 9 18 9 18.09765625 11.06640625 C18.08605469 11.89011719 18.07445313 12.71382812 18.0625 13.5625 C18.05347656 14.38878906 18.04445313 15.21507812 18.03515625 16.06640625 C18.02355469 16.70449219 18.01195313 17.34257812 18 18 C17.67 18 17.34 18 17 18 C17 15.36 17 12.72 17 10 C15.68 9.67 14.36 9.34 13 9 C13 8.34 13 7.68 13 7 C10.11980724 5.53347983 7.20691485 4.17952126 4.25 2.875 C3.45078125 2.52179688 2.6515625 2.16859375 1.828125 1.8046875 C1.22484375 1.53914062 0.6215625 1.27359375 0 1 C0 0.67 0 0.34 0 0 Z " fill="#825D68" transform="translate(70,212)"/>
<path d="M0 0 C-1.2065625 1.11375 -1.2065625 1.11375 -2.4375 2.25 C-5.43477705 5.19567796 -5.43477705 5.19567796 -6 9 C-4.14749996 12.23761134 -4.14749996 12.23761134 -2 15 C-3.8125 14.8125 -3.8125 14.8125 -6 14 C-7.97437138 11.46152251 -8.90862907 9.62436801 -9.375 6.4375 C-8.92046091 3.48299593 -8.06414917 2.14059914 -6 0 C-3 -1 -3 -1 0 0 Z " fill="#9D757E" transform="translate(178,179)"/>
<path d="M0 0 C0.66 0 1.32 0 2 0 C2.52335055 3.67016347 2.11602579 4.84137434 -0.1171875 7.89453125 C-1.02373985 8.87905239 -1.94352966 9.85152027 -2.875 10.8125 C-3.33519531 11.31458984 -3.79539063 11.81667969 -4.26953125 12.33398438 C-5.46280027 13.60507529 -6.72718923 14.80856565 -8 16 C-8.66 16 -9.32 16 -10 16 C-9.66341653 12.93393496 -9.36114808 11.37437979 -7.1875 9.12109375 C-6.465625 8.56550781 -5.74375 8.00992187 -5 7.4375 C-2.00219929 5.11955767 -0.53540073 3.82309582 0 0 Z " fill="#925B5C" transform="translate(140,284)"/>
<path d="M0 0 C0.66 0.66 1.32 1.32 2 2 C1.9375 4.5 1.9375 4.5 1 7 C-1.375 8.25 -1.375 8.25 -4 9 C-4.99 9.33 -5.98 9.66 -7 10 C-7.33 10.99 -7.66 11.98 -8 13 C-9.65 13 -11.3 13 -13 13 C-13 11.35 -13 9.7 -13 8 C-11.02 8.99 -11.02 8.99 -9 10 C-7.88625 8.7625 -7.88625 8.7625 -6.75 7.5 C-4 5 -4 5 0 5 C0 3.35 0 1.7 0 0 Z " fill="#A0717B" transform="translate(45,186)"/>
<path d="M0 0 C0.66 0 1.32 0 2 0 C1.67 5.61 1.34 11.22 1 17 C0.34 17.33 -0.32 17.66 -1 18 C-1.02707139 15.75006641 -1.04642829 13.50003905 -1.0625 11.25 C-1.07410156 9.99703125 -1.08570312 8.7440625 -1.09765625 7.453125 C-1.02021027 4.71463499 -0.82780815 2.58119707 0 0 Z " fill="#8E5851" transform="translate(2,335)"/>
<path d="M0 0 C1.65 0 3.3 0 5 0 C4.67 1.65 4.34 3.3 4 5 C-2.20970773 5.33266291 -6.28264895 4.45029331 -12 2 C-9.36749612 0.68374806 -8.19820944 1.25186342 -5.375 1.9375 C-4.14910156 2.22947266 -4.14910156 2.22947266 -2.8984375 2.52734375 C-1.95871094 2.76130859 -1.95871094 2.76130859 -1 3 C-0.67 2.01 -0.34 1.02 0 0 Z " fill="#A1828A" transform="translate(162,241)"/>
<path d="M0 0 C0.33 0.99 0.66 1.98 1 3 C1.66 3 2.32 3 3 3 C2.4375 6.375 2.4375 6.375 1 10 C-2.625 11.4375 -2.625 11.4375 -6 12 C-6 11.01 -6 10.02 -6 9 C-5.38125 8.814375 -4.7625 8.62875 -4.125 8.4375 C-0.94397134 6.28562767 -0.80548053 3.62466237 0 0 Z " fill="#DDB5BB" transform="translate(16,169)"/>
<path d="M0 0 C-0.66 0 -1.32 0 -2 0 C-2.33 0.99 -2.66 1.98 -3 3 C-3.99 3.639375 -4.98 4.27875 -6 4.9375 C-9.12081076 6.64438253 -9.12081076 6.64438253 -9.75 9.1875 C-9.8325 9.785625 -9.915 10.38375 -10 11 C-10.99 11.495 -10.99 11.495 -12 12 C-12.5625 8.875 -12.5625 8.875 -12 5 C-8.4557158 1.57240005 -4.9179787 -1.63932623 0 0 Z " fill="#D6B2B9" transform="translate(176,170)"/>
<path d="M0 0 C1.41750563 0.11509661 2.83401169 0.24253658 4.25 0.375 C5.03890625 0.44460937 5.8278125 0.51421875 6.640625 0.5859375 C9.085877 1.01507113 10.84836903 1.78600638 13 3 C12.67 4.65 12.34 6.3 12 8 C9.5 6.625 9.5 6.625 7 5 C7 4.34 7 3.68 7 3 C5.824375 3.0928125 5.824375 3.0928125 4.625 3.1875 C3.75875 3.125625 2.8925 3.06375 2 3 C1.34 2.01 0.68 1.02 0 0 Z " fill="#E3B6BE" transform="translate(36,169)"/>
<path d="M0 0 C2 2 2 2 2.1953125 5.4765625 C2.18201493 6.85950968 2.15816232 8.24238654 2.125 9.625 C2.11597656 10.33140625 2.10695312 11.0378125 2.09765625 11.765625 C2.07407603 13.51056098 2.03820461 15.25532295 2 17 C1.01 17 0.02 17 -1 17 C-0.67 11.39 -0.34 5.78 0 0 Z " fill="#B38D9F" transform="translate(182,215)"/>
<path d="M0 0 C0.66 0.33 1.32 0.66 2 1 C1.38125 1.7425 0.7625 2.485 0.125 3.25 C-2.35195554 6.45547187 -3.72596898 9.17790693 -5 13 C-5.33 12.67 -5.66 12.34 -6 12 C-5.76208178 4.74349442 -5.76208178 4.74349442 -2.4375 1.5 C-1.633125 1.005 -0.82875 0.51 0 0 Z " fill="#935757" transform="translate(127,289)"/>
<path d="M0 0 C7 7 7 7 7.125 10.125 C7.08375 11.07375 7.0425 12.0225 7 13 C6.01 13.495 6.01 13.495 5 14 C5 12.02 5 10.04 5 8 C3.68 7.67 2.36 7.34 1 7 C0.67 4.69 0.34 2.38 0 0 Z " fill="#E1BBC4" transform="translate(169,190)"/>
<path d="M0 0 C2.32165945 0.92866378 3.72027146 1.5804072 5.125 3.6875 C6.24620129 6.65067484 6.19368059 9.09069297 6.125 12.25 C6.10695312 13.32765625 6.08890625 14.4053125 6.0703125 15.515625 C6.04710937 16.33546875 6.02390625 17.1553125 6 18 C5.67 18 5.34 18 5 18 C4.96132812 16.86111328 4.96132812 16.86111328 4.921875 15.69921875 C4.86515625 14.70535156 4.8084375 13.71148437 4.75 12.6875 C4.70359375 11.70136719 4.6571875 10.71523437 4.609375 9.69921875 C3.85326271 6.35002905 2.70370849 5.93044786 0 4 C0 2.68 0 1.36 0 0 Z " fill="#775D6F" transform="translate(174,213)"/>
<path d="M0 0 C1.31571603 0.2547514 2.62760376 0.52934141 3.9375 0.8125 C4.66839844 0.96332031 5.39929688 1.11414063 6.15234375 1.26953125 C6.76207031 1.51058594 7.37179688 1.75164062 8 2 C8.33 2.99 8.66 3.98 9 5 C10.29355827 6.37195574 11.62298702 7.71182656 13 9 C12.34 10.32 11.68 11.64 11 13 C10.938125 12.2575 10.87625 11.515 10.8125 10.75 C9.47855872 6.23512184 6.07787775 4.64672665 2.1875 2.3125 C1.465625 1.879375 0.74375 1.44625 0 1 C0 0.67 0 0.34 0 0 Z " fill="#A47B85" transform="translate(80,215)"/>
<path d="M0 0 C2.1015625 0.42578125 2.1015625 0.42578125 4 1 C2.8803014 2.00593243 1.7540588 3.0045849 0.625 4 C-0.00148437 4.556875 -0.62796875 5.11375 -1.2734375 5.6875 C-3 7 -3 7 -5 7 C-3.7251791 4.15616877 -2.54862922 1.86245982 0 0 Z " fill="#C198A1" transform="translate(181,168)"/>
<path d="M0 0 C2.375 0.25 2.375 0.25 5 1 C6.3125 3.0625 6.3125 3.0625 7 5 C5.0085944 5.38133299 3.00720923 5.71325582 1 6 C0 5 0 5 -0.0625 2.4375 C-0.041875 1.633125 -0.02125 0.82875 0 0 Z " fill="#E2D3CE" transform="translate(0,154)"/>
<path d="M0 0 C0 0.66 0 1.32 0 2 C-1.85625 2.1546875 -1.85625 2.1546875 -3.75 2.3125 C-7.3503246 2.74428496 -9.211503 3.62461367 -12 6 C-12.99 6 -13.98 6 -15 6 C-15 5.34 -15 4.68 -15 4 C-9.60931587 0.40621058 -6.46326465 -0.45356243 0 0 Z " fill="#816272" transform="translate(174,211)"/>
<path d="M0 0 C1.65 0 3.3 0 5 0 C5 0.99 5 1.98 5 3 C-0.94 3.495 -0.94 3.495 -7 4 C-7 4.66 -7 5.32 -7 6 C-7.99 5.67 -8.98 5.34 -10 5 C-6.79663178 2.16625119 -4.21912747 1.4794463 0 1 C0 0.67 0 0.34 0 0 Z " fill="#E4BDC3" transform="translate(33,216)"/>
<path d="M0 0 C0.66 0 1.32 0 2 0 C0.95125002 2.62187494 0.35068687 3.79371361 -2.125 5.25 C-2.74375 5.4975 -3.3625 5.745 -4 6 C-4 5.34 -4 4.68 -4 4 C-3.34 4 -2.68 4 -2 4 C-1.34 2.68 -0.68 1.36 0 0 Z M-7 6 C-6.01 6.33 -5.02 6.66 -4 7 C-5.32 7.99 -6.64 8.98 -8 10 C-8.66 9.34 -9.32 8.68 -10 8 C-9.01 7.34 -8.02 6.68 -7 6 Z " fill="#F0C4CD" transform="translate(153,198)"/>
<path d="M0 0 C0.99 0 1.98 0 3 0 C1.43358249 4.30764815 -0.68336156 8.06171464 -3 12 C-3.33 12 -3.66 12 -4 12 C-4.61528766 6.92387682 -2.61658349 4.17017994 0 0 Z " fill="#AE6E68" transform="translate(15,302)"/>
<path d="M0 0 C1.92536938 1.60558484 2.91074167 2.47769478 3.34057617 4.99291992 C3.3170105 6.10050659 3.3170105 6.10050659 3.29296875 7.23046875 C3.28330078 8.03291016 3.27363281 8.83535156 3.26367188 9.66210938 C3.23853516 10.49548828 3.21339844 11.32886719 3.1875 12.1875 C3.16719727 13.4549707 3.16719727 13.4549707 3.14648438 14.74804688 C3.11115799 16.83230384 3.05735139 18.91623277 3 21 C2.67 21 2.34 21 2 21 C1.93941406 19.98679688 1.87882813 18.97359375 1.81640625 17.9296875 C1.73193296 16.57811486 1.64728843 15.22655291 1.5625 13.875 C1.50352539 12.87726563 1.50352539 12.87726563 1.44335938 11.859375 C1.187848 7.84981183 0.73217587 3.95005804 0 0 Z " fill="#C7A2B2" transform="translate(182,211)"/>
<path d="M0 0 C5.92863717 1.16651426 11.38798394 2.75519358 17 5 C12.67700515 6.44099828 9.28531371 5.29835249 5 4 C1.9375 2.4375 1.9375 2.4375 0 1 C0 0.67 0 0.34 0 0 Z " fill="#F4CAD2" transform="translate(35,166)"/>
<path d="M0 0 C2 2 2 2 2.1953125 4.3828125 C2.17210937 5.28773438 2.14890625 6.19265625 2.125 7.125 C2.10695312 8.03507812 2.08890625 8.94515625 2.0703125 9.8828125 C2.04710937 10.58148438 2.02390625 11.28015625 2 12 C0.68 11.67 -0.64 11.34 -2 11 C-1.67 9.68 -1.34 8.36 -1 7 C-0.34 7 0.32 7 1 7 C0.67 4.69 0.34 2.38 0 0 Z " fill="#8D5F5D" transform="translate(192,388)"/>
<path d="M0 0 C0.99 0 1.98 0 3 0 C3 3 3 3 1.6875 4.38671875 C0.125 5.59114583 -1.4375 6.79557292 -3 8 C-3.66 7.67 -4.32 7.34 -5 7 C-4.24172908 5.82512964 -3.46792245 4.66027408 -2.6875 3.5 C-2.25824219 2.8503125 -1.82898438 2.200625 -1.38671875 1.53125 C-0.70029297 0.77328125 -0.70029297 0.77328125 0 0 Z " fill="#AF7571" transform="translate(21,293)"/>
<path d="M0 0 C0.66 0 1.32 0 2 0 C2 0.99 2 1.98 2 3 C1.01 3.495 1.01 3.495 0 4 C2.97 4.495 2.97 4.495 6 5 C6 5.33 6 5.66 6 6 C2.7 6 -0.6 6 -4 6 C-3.67 5.01 -3.34 4.02 -3 3 C-2.34 3 -1.68 3 -1 3 C-0.67 2.01 -0.34 1.02 0 0 Z " fill="#A78190" transform="translate(78,242)"/>
<path d="M0 0 C3.3 0 6.6 0 10 0 C10 0.66 10 1.32 10 2 C6.33694766 2.74926071 3.57644848 3.2380014 0 2 C0 1.34 0 0.68 0 0 Z " fill="#B6909E" transform="translate(67,243)"/>
<path d="M0 0 C0.33 0 0.66 0 1 0 C1.18175781 0.67546875 1.36351562 1.3509375 1.55078125 2.046875 C1.80214844 2.93890625 2.05351562 3.8309375 2.3125 4.75 C2.55613281 5.63171875 2.79976562 6.5134375 3.05078125 7.421875 C4.02125331 10.05772505 5.21005644 11.85407326 7 14 C3.61768919 12.60042311 1.72071358 11.26935579 0 8 C-0.24493747 5.27963064 -0.13708782 2.74175634 0 0 Z " fill="#745860" transform="translate(152,224)"/>
<path d="M0 0 C0.86625 -0.00515625 1.7325 -0.0103125 2.625 -0.015625 C5 0.25 5 0.25 8 2.25 C8 2.91 8 3.57 8 4.25 C6.68 3.92 5.36 3.59 4 3.25 C4 2.59 4 1.93 4 1.25 C-1.94 1.745 -1.94 1.745 -8 2.25 C-4.76085771 0.09057181 -3.75140267 -0.02232978 0 0 Z " fill="#B38E9D" transform="translate(174,208.75)"/>
<path d="M0 0 C2.31 0.66 4.62 1.32 7 2 C7 2.66 7 3.32 7 4 C4.36 4 1.72 4 -1 4 C-0.67 2.68 -0.34 1.36 0 0 Z " fill="#542324" transform="translate(199,396)"/>
<path d="M0 0 C2.16874252 0.50603992 3.99967627 0.99983813 6 2 C6 2.66 6 3.32 6 4 C6.639375 4.12375 7.27875 4.2475 7.9375 4.375 C8.618125 4.58125 9.29875 4.7875 10 5 C10.33 5.66 10.66 6.32 11 7 C6.80639551 6.32902328 3.59665648 4.1441606 0 2 C0 1.34 0 0.68 0 0 Z " fill="#CCA4AD" transform="translate(184,202)"/>
<path d="M0 0 C2.64 0.33 5.28 0.66 8 1 C8 2.98 8 4.96 8 7 C7.67 6.01 7.34 5.02 7 4 C5.01276732 3.29618843 3.01222047 2.6288189 1 2 C0.67 1.34 0.34 0.68 0 0 Z " fill="#B27D88" transform="translate(37,179)"/>
<path d="M0 0 C0.66 0.33 1.32 0.66 2 1 C1.2884375 1.5878125 1.2884375 1.5878125 0.5625 2.1875 C-1.35179633 4.40808374 -1.61266988 6.13375709 -2 9 C-2.66 9 -3.32 9 -4 9 C-4.33 6.69 -4.66 4.38 -5 2 C-4.360625 1.855625 -3.72125 1.71125 -3.0625 1.5625 C-1.02454854 1.18992819 -1.02454854 1.18992819 0 0 Z " fill="#D5ACB1" transform="translate(202,166)"/>
<path d="M0 0 C0.66 0 1.32 0 2 0 C2.375 2.1875 2.375 2.1875 2 5 C0.16038352 6.99022836 -1.79186148 8.38989899 -4 10 C-3.4213888 6.64405503 -2.35999139 5.35999139 0 3 C0 2.01 0 1.02 0 0 Z " fill="#9F696B" transform="translate(140,284)"/>
<path d="M0 0 C-0.33 0.99 -0.66 1.98 -1 3 C-3.31 3.33 -5.62 3.66 -8 4 C-7.67 3.01 -7.34 2.02 -7 1 C-4.52260646 0.09162237 -2.66420516 0 0 0 Z " fill="#B697A4" transform="translate(174,240)"/>
<path d="M0 0 C-0.8353125 0.37125 -0.8353125 0.37125 -1.6875 0.75 C-5.66048336 2.89755857 -8.49278699 5.23918048 -11 9 C-10.66009204 5.94082833 -10.14301602 4.19598492 -8.3125 1.6875 C-5.37575119 -0.45553291 -3.55482252 -0.32316568 0 0 Z " fill="#916671" transform="translate(69,212)"/>
<path d="M0 0 C1.32 0.66 2.64 1.32 4 2 C3 3 3 3 0.27734375 3.09765625 C-1.37587891 3.08025391 -1.37587891 3.08025391 -3.0625 3.0625 C-4.16722656 3.05347656 -5.27195312 3.04445312 -6.41015625 3.03515625 C-7.69212891 3.01775391 -7.69212891 3.01775391 -9 3 C-9 2.67 -9 2.34 -9 2 C-6.94921875 1.77213542 -4.8984375 1.54427083 -2.84765625 1.31640625 C-0.98859771 1.18113386 -0.98859771 1.18113386 0 0 Z " fill="#D4AAB4" transform="translate(82,208)"/>
<path d="M0 0 C0.66 0.66 1.32 1.32 2 2 C1.01 3.98 0.02 5.96 -1 8 C-1.66 7.67 -2.32 7.34 -3 7 C-2.38722388 4.03824877 -1.74627478 2.61941217 0 0 Z " fill="#E5C5C9" transform="translate(198,209)"/>
<path d="M0 0 C0 0.66 0 1.32 0 2 C-1.98 2 -3.96 2 -6 2 C-3 0 -3 0 0 0 Z " fill="#DBD3CB" transform="translate(181,151)"/>
<path d="M0 0 C0.99 0 1.98 0 3 0 C3 0.66 3 1.32 3 2 C2.01 2 1.02 2 0 2 C0 1.34 0 0.68 0 0 Z " fill="#E1D0CC" transform="translate(166,153)"/>
<path d="M0 0 C3 1 3 1 3 1 Z " fill="#DED3CF" transform="translate(170,153)"/>
<path d="M0 0 C2 1 2 1 2 1 Z " fill="#F0D5D5" transform="translate(6,202)"/>
<path d="M0 0 C2 1 2 1 2 1 Z " fill="#E4D7D2" transform="translate(163,154)"/>
</svg>
